<?xml version="1.0" encoding="UTF-8"?><svg id="Layer_1" xmlns="http://www.w3.org/2000/svg" viewBox="0 0 500 500"><defs><style>.cls-1{fill:#fa503b;}</style></defs><path class="cls-1" d="m451.93,240.87c-2.9-2.9-40.17-49.84-46.46-57.59-6.77-7.74-9.68-6.29-14.03-5.81-4.36.48-51.3,8.71-56.62,9.19-5.32.97-8.71,2.9-5.32,7.74,2.9,4.36,33.87,47.91,40.65,58.07l-123.4,29.52-97.75-164.05c-3.87-5.81-4.84-7.74-13.55-7.26-8.71.48-76.94,6.29-81.78,6.29-4.84.48-10.16,2.42-5.32,14.03,4.84,11.61,82.27,178.08,84.2,182.92,1.94,4.84,7.74,12.58,20.81,9.68,13.55-3.39,60.01-15.49,85.65-22.26,13.55,24.2,40.65,73.56,45.97,80.81,6.77,9.68,11.61,7.74,21.78,4.84,8.23-2.42,126.79-45,132.11-47.42,5.32-2.42,8.71-3.87,4.84-9.19-2.9-3.87-33.87-45.97-50.33-67.75,11.13-2.9,51.3-13.55,55.65-15,4.84-1.45,5.81-3.87,2.9-6.77h0Zm-224.05,45.97c-1.45.48-70.65,16.94-74.04,17.9-3.87.97-3.87.48-3.87-.97-.97-1.45-82.27-169.85-83.72-171.79-.97-1.94-.97-3.87,0-3.87s65.33-5.81,67.26-5.81c2.42,0,1.94.48,2.9,1.94,0,0,90.49,156.3,91.94,158.72,1.94,2.42.97,3.39-.48,3.87h0Zm194.53,36.29c.97,1.94,2.42,2.9-1.45,3.87-3.39,1.45-116.62,39.68-119.04,40.65-2.42.97-3.87,1.45-6.77-2.9-2.9-4.36-39.68-67.75-39.68-67.75l120.5-31.45c2.9-.97,3.87-1.45,5.81,1.45,1.94,3.39,39.68,54.68,40.65,56.13h0Zm7.74-85.17c-2.9.48-46.94,11.61-46.94,11.61l-36.29-49.36c-.97-1.45-1.94-2.9.48-3.39s43.55-7.74,45.49-8.23,3.39-.97,5.81,2.42c2.42,2.9,33.39,42.58,34.84,44.04,1.45,1.45-.48,2.42-3.39,2.9h0Z"/></svg>